# File created by Blade
# Date/Time:  Wed Jan 21 14:55:23 2015
#---------------------------------------------------------
:version 1.10
:name HOM
:units
  mass 1.0
  length 1.000000
  angle deg
:documentation
     Acclaim Skeleton File
:root
   axis xyz
   order TX TY TZ RX RY RZ
   position 0.000000 0.000000 0.000000
   orientation 0 0 0
:bonedata
   begin
      id 1
      name Spine_dum
      direction 0.000000 1.000000 0.000000
      length 7.067664
      axis 0.0 0.0 0.0 xyz
   end
   begin
      id 2
      name LeftUpLeg_dum
      direction 1.000000 0.000000 0.000000
      length 4.013002
      axis 0.0 0.0 0.0 xyz
   end
   begin
      id 3
      name RightUpLeg_dum
      direction -1.000000 0.000000 0.000000
      length 4.013002
      axis 0.0 0.0 0.0 xyz
   end
   begin
      id 4
      name Spine
      direction 0.000000 1.000000 0.000000
      length 0.000000
      axis 0.0 0.0 0.0 xyz
      dof rx ry rz
   end
   begin
      id 5
      name Spine_dum1
      direction 0.000000 1.000000 0.000000
      length 15.039886
      axis 0.0 0.0 0.0 xyz
   end
   begin
      id 6
      name Spine_dum2
      direction 0.000000 1.000000 0.000000
      length 10.530368
      axis 0.0 0.0 0.0 xyz
   end
   begin
      id 7
      name Spine_dum3
      direction 0.000000 1.000000 0.000000
      length 10.530368
      axis 0.0 0.0 0.0 xyz
   end
   begin
      id 8
      name Head
      direction 0.000000 1.000000 0.000000
      length 4.527550
      axis 0.0 0.0 0.0 xyz
      dof rx ry rz
   end
   begin
      id 9
      name LeftShoulder
      direction 1.000000 0.000000 0.000000
      length 7.028855
      axis 0.0 0.0 -90.0 xyz
      dof rx ry rz
   end
   begin
      id 10
      name LeftArm
      direction 1.000000 0.000000 0.000000
      length 10.797705
      axis 0.0 0.0 -90.0 xyz
      dof rx ry rz
   end
   begin
      id 11
      name LeftForeArm
      direction 1.000000 0.000000 0.000000
      length 7.907442
      axis 0.0 0.0 -90.0 xyz
      dof ry rz rx
   end
   begin
      id 12
      name LeftHand
      direction 0.000000 0.000000 0.000000
      length 0.000000
      axis 0.0 0.0 -90.0 xyz
      dof rx ry rz
   end
   begin
      id 13
      name LeftHand_dum1
      direction 0.000000 0.000000 0.000000
      length 0.000000
      axis 0.0 0.0 -90.0 xyz
   end
   begin
      id 14
      name LeftHand_dum2
      direction 1.000000 0.000000 0.000000
      length 3.937000
      axis 0.0 0.0 -90.0 xyz
   end
   begin
      id 15
      name LeftHandThumb1
      direction 0.000000 0.000000 1.000000
      length 3.937000
      axis 0.0 0.0 -90.0 xyz
      dof rx rz ry
   end
   begin
      id 16
      name RightShoulder
      direction -1.000000 0.000000 0.000000
      length 7.028855
      axis 0.0 0.0 90.0 xyz
      dof rx ry rz
   end
   begin
      id 17
      name RightArm
      direction -1.000000 0.000000 0.000000
      length 10.797705
      axis 0.0 0.0 90.0 xyz
      dof rx ry rz
   end
   begin
      id 18
      name RightForeArm
      direction -1.000000 0.000000 0.000000
      length 7.907442
      axis 0.0 0.0 90.0 xyz
      dof ry rz rx
   end
   begin
      id 19
      name RightHand
      direction 0.000000 0.000000 0.000000
      length 0.000000
      axis 0.0 0.0 90.0 xyz
      dof rx ry rz
   end
   begin
      id 20
      name RightHand_dum1
      direction 0.000000 0.000000 0.000000
      length 0.000000
      axis 0.0 0.0 90.0 xyz
   end
   begin
      id 21
      name RightHand_dum2
      direction -1.000000 0.000000 0.000000
      length 3.937000
      axis 0.0 0.0 90.0 xyz
   end
   begin
      id 22
      name RightHandThumb1
      direction 0.000000 0.000000 1.000000
      length 3.937000
      axis 0.0 0.0 90.0 xyz
      dof rx rz ry
   end
   begin
      id 23
      name LeftUpLeg
      direction 0.000000 -1.000000 0.000000
      length 16.899758
      axis 0.0 0.0 0.0 xyz
      dof rx ry rz
   end
   begin
      id 24
      name LeftLeg
      direction 0.000000 -1.000000 0.000000
      length 17.389183
      axis 0.0 0.0 0.0 xyz
      dof rx ry rz
   end
   begin
      id 25
      name LeftFoot
      direction 0.000000 -0.258819 0.965926
      length 4.924528
      axis 15.0 0.0 0.0 xyz
      dof rx ry rz
   end
   begin
      id 26
      name LeftToeBase
      direction 0.000000 0.000000 1.000000
      length 2.952750
      axis 0.0 0.0 0.0 xyz
      dof rx ry rz
   end
   begin
      id 27
      name RightUpLeg
      direction 0.000000 -1.000000 0.000000
      length 16.899758
      axis 0.0 0.0 0.0 xyz
      dof rx ry rz
   end
   begin
      id 28
      name RightLeg
      direction 0.000000 -1.000000 0.000000
      length 17.389183
      axis 0.0 0.0 0.0 xyz
      dof rx ry rz
   end
   begin
      id 29
      name RightFoot
      direction 0.000000 -0.258819 0.965926
      length 4.924528
      axis 15.0 0.0 0.0 xyz
      dof rx ry rz
   end
   begin
      id 30
      name RightToeBase
      direction 0.000000 0.000000 1.000000
      length 2.952750
      axis 0.0 0.0 0.0 xyz
      dof rx ry rz
   end
:hierarchy
   begin
      root Spine_dum LeftUpLeg_dum RightUpLeg_dum
      Spine_dum Spine
      LeftUpLeg_dum LeftUpLeg
      RightUpLeg_dum RightUpLeg
      Spine Spine_dum1 Spine_dum2 Spine_dum3
      Spine_dum1 Head
      Spine_dum2 LeftShoulder
      Spine_dum3 RightShoulder
      LeftShoulder LeftArm
      LeftArm LeftForeArm
      LeftForeArm LeftHand
      LeftHand LeftHand_dum1 LeftHand_dum2
      LeftHand_dum1 LeftHandThumb1
      RightShoulder RightArm
      RightArm RightForeArm
      RightForeArm RightHand
      RightHand RightHand_dum1 RightHand_dum2
      RightHand_dum1 RightHandThumb1
      LeftUpLeg LeftLeg
      LeftLeg LeftFoot
      LeftFoot LeftToeBase
      RightUpLeg RightLeg
      RightLeg RightFoot
      RightFoot RightToeBase
   end

# File created by Blade
# Date/Time:  Wed Jan 21 14:55:15 2015
# Frame Rate: 120.000 fps
#------------------------------------------------------
:FULLY-SPECIFIED
:DEGREES
86
root 18.369888 35.580238 -22.049078 -173.201397 -0.349118 -179.429158
Spine -16.671129 -0.283111 -2.122526
Head 15.461269 -8.289388 3.666588
LeftShoulder -12.760008 -29.465462 17.622142
LeftArm 0.124820 6.718534 -10.026312
LeftForeArm 3.443275 -0.000000 0.197124
LeftHand -6.997008 -0.000000 5.662243
LeftHandThumb1 -26.253704 0.000000 33.147579
RightShoulder -12.707921 -6.691020 -7.114716
RightArm 7.368673 32.700473 14.960125
RightForeArm -34.184646 -0.000000 7.854886
RightHand -8.030243 -0.000000 0.616589
RightHandThumb1 -24.326973 -0.000000 -32.862282
LeftUpLeg 0.491134 9.065720 1.292804
LeftLeg -5.075866 -0.000000 0.000000
LeftFoot -20.251101 29.296554 -13.702992
LeftToeBase 25.773002 -0.000000 -0.000000
RightUpLeg 0.468650 -8.164475 0.324897
RightLeg -3.044731 -0.000000 0.000000
RightFoot -21.211632 -26.081407 14.920027
RightToeBase 24.586804 -0.000000 -0.000000
87
root 18.357735 35.581212 -22.026809 -173.232915 -0.250544 -179.426866
Spine -16.474883 -0.259446 -2.157787
Head 15.371782 -8.515826 3.739127
LeftShoulder -12.820827 -28.963830 17.325495
LeftArm -0.035734 7.373639 -10.539273
LeftForeArm 3.256031 -0.000000 0.517253
LeftHand -6.967916 -0.000000 6.053519
LeftHandThumb1 -26.253704 0.000000 33.147579
RightShoulder -12.696416 -6.936589 -6.870548
RightArm 7.376234 32.312206 15.522117
RightForeArm -33.900479 -0.000000 8.378976
RightHand -8.189051 -0.000000 -0.121071
RightHandThumb1 -24.326973 -0.000000 -32.862282
LeftUpLeg 0.488959 9.187315 1.258734
LeftLeg -5.058255 -0.000000 0.000000
LeftFoot -20.238960 29.305042 -13.658897
LeftToeBase 25.713468 -0.000000 -0.000000
RightUpLeg 0.433500 -8.110957 0.299765
RightLeg -3.011918 -0.000000 0.000000
RightFoot -21.168040 -26.060684 14.868643
RightToeBase 24.605375 -0.000000 -0.000000
88
root 18.347117 35.581586 -22.005244 -173.293520 -0.189995 -179.412814
Spine -16.253256 -0.281037 -2.159601
Head 15.334453 -8.686631 3.789015
LeftShoulder -12.900614 -28.466384 16.993182
LeftArm -0.157014 7.933627 -11.083455
LeftForeArm 3.211559 -0.000000 0.782170
LeftHand -6.960779 -0.000000 6.431912
LeftHandThumb1 -26.253704 0.000000 33.147579
RightShoulder -12.613040 -7.292687 -6.577568
RightArm 7.311165 32.055066 16.011515
RightForeArm -33.642237 -0.000000 8.857429
RightHand -8.187380 -0.000000 -0.882913
RightHandThumb1 -24.326973 -0.000000 -32.862282
LeftUpLeg 0.529465 9.219558 1.250229
LeftLeg -5.071845 -0.000000 0.000000
LeftFoot -20.228433 29.366318 -13.596627
LeftToeBase 25.761500 -0.000000 -0.000000
RightUpLeg 0.436276 -8.110440 0.289205
RightLeg -2.983765 -0.000000 0.000000
RightFoot -21.127331 -26.041705 14.831302
RightToeBase 24.576913 -0.000000 -0.000000
89
root 18.336466 35.581374 -21.985583 -173.359359 -0.147214 -179.414598
Spine -16.015574 -0.281334 -2.217367
Head 15.290633 -8.990993 3.891390
LeftShoulder -12.961115 -28.073626 16.694468
LeftArm -0.299137 8.503996 -11.675953
LeftForeArm 3.264809 -0.000000 1.058798
LeftHand -6.992017 -0.000000 6.712260
LeftHandThumb1 -26.253704 0.000000 33.147579
RightShoulder -12.679906 -7.751995 -6.202980
RightArm 7.473864 31.828108 16.629005
RightForeArm -33.241735 0.000000 9.290380
RightHand -8.257289 -0.000000 -1.664208
RightHandThumb1 -24.326973 -0.000000 -32.862282
LeftUpLeg 0.572855 9.237935 1.230360
LeftLeg -5.079237 -0.000000 0.000000
LeftFoot -20.230974 29.403259 -13.563373
LeftToeBase 25.774434 -0.000000 -0.000000
RightUpLeg 0.464793 -8.074589 0.261025
RightLeg -2.985339 -0.000000 0.000000
RightFoot -21.099717 -26.034870 14.812933
RightToeBase 24.638389 -0.000000 -0.000000
90
root 18.321933 35.582359 -21.960321 -173.390094 -0.078894 -179.425095
Spine -15.811222 -0.261960 -2.261358
Head 15.247739 -9.272349 3.975096
LeftShoulder -13.032234 -27.713611 16.357853
LeftArm -0.460127 8.952221 -12.296613
LeftForeArm 3.365388 -0.000000 1.330501
LeftHand -6.991600 0.000000 6.788195
LeftHandThumb1 -26.253704 0.000000 33.147579
RightShoulder -12.667164 -8.006668 -5.913008
RightArm 7.482580 31.456250 17.212555
RightForeArm -33.056041 -0.000000 9.637081
RightHand -8.113391 0.000000 -2.425262
RightHandThumb1 -24.326973 -0.000000 -32.862282
LeftUpLeg 0.565901 9.303440 1.183129
LeftLeg -5.070662 -0.000000 0.000000
LeftFoot -20.195707 29.429061 -13.510240
LeftToeBase 25.740633 -0.000000 -0.000000
RightUpLeg 0.441568 -7.996704 0.221931
RightLeg -2.975298 -0.000000 0.000000
RightFoot -21.064567 -26.069034 14.773699
RightToeBase 24.598379 -0.000000 -0.000000
91
root 18.305882 35.583473 -21.933867 -173.408466 0.011652 -179.438459
Spine -15.616320 -0.215009 -2.316382
Head 15.210637 -9.576869 4.053244
LeftShoulder -13.145954 -27.364646 16.049187
LeftArm -0.567370 9.117973 -12.974752
LeftForeArm 3.745149 -0.000000 1.511547
LeftHand -7.140547 -0.000000 6.958235
LeftHandThumb1 -26.253704 0.000000 33.147579
RightShoulder -12.777032 -8.432330 -5.448505
RightArm 7.805974 31.119782 17.770794
RightForeArm -32.687080 0.000000 9.793593
RightHand -8.102956 0.000000 -3.179660
RightHandThumb1 -24.326973 -0.000000 -32.862282
LeftUpLeg 0.550908 9.336951 1.130242
LeftLeg -5.065662 -0.000000 0.000000
LeftFoot -20.191688 29.491936 -13.491456
LeftToeBase 25.740513 -0.000000 -0.000000
RightUpLeg 0.391537 -7.930274 0.178345
RightLeg -2.949308 -0.000000 0.000000
RightFoot -21.024584 -26.073409 14.719358
RightToeBase 24.614826 -0.000000 -0.000000
92
root 18.294423 35.581262 -21.917964 -173.515900 0.026983 -179.457904
Spine -15.338333 -0.208875 -2.395968
Head 15.182809 -9.959032 4.171002
LeftShoulder -13.179102 -27.051994 15.729282
LeftArm -0.745319 9.221813 -13.681442
LeftForeArm 3.952302 -0.000000 1.697735
LeftHand -7.149469 -0.000000 6.855920
LeftHandThumb1 -26.253704 0.000000 33.147579
RightShoulder -12.873889 -8.707979 -5.033413
RightArm 7.995702 30.862871 18.375865
RightForeArm -32.693227 -0.000000 10.031248
RightHand -8.127231 -0.000000 -3.647227
RightHandThumb1 -24.326973 -0.000000 -32.862282
LeftUpLeg 0.638317 9.335868 1.103688
LeftLeg -5.070816 -0.000000 0.000000
LeftFoot -20.197268 29.512780 -13.439471
LeftToeBase 25.838510 -0.000000 -0.000000
RightUpLeg 0.492067 -7.970615 0.124027
RightLeg -2.985388 -0.000000 0.000000
RightFoot -20.977382 -26.041478 14.613218
RightToeBase 24.702260 -0.000000 -0.000000
93
root 18.279717 35.582776 -21.892172 -173.490491 0.083296 -179.468286
Spine -15.225905 -0.198967 -2.442529
Head 15.218753 -10.291297 4.276066
LeftShoulder -13.241893 -26.652647 15.410555
LeftArm -0.979804 9.046629 -14.461321
LeftForeArm 4.331075 -0.000000 1.903006
LeftHand -7.122834 -0.000000 6.723569
LeftHandThumb1 -26.253704 0.000000 33.147579
RightShoulder -12.944481 -8.950385 -4.625218
RightArm 8.224386 30.563798 18.991832
RightForeArm -32.624881 -0.000000 10.204089
RightHand -8.030510 -0.000000 -4.169657
RightHandThumb1 -24.326973 -0.000000 -32.862282
LeftUpLeg 0.570452 9.356377 1.052257
LeftLeg -5.055107 -0.000000 0.000000
LeftFoot -20.179091 29.545499 -13.408161
LeftToeBase 25.844818 -0.000000 -0.000000
RightUpLeg 0.421136 -7.898285 0.092491
RightLeg -2.991153 -0.000000 0.000000
RightFoot -20.922488 -26.074883 14.580120
RightToeBase 24.666995 -0.000000 -0.000000
94
root 18.262193 35.580559 -21.868054 -173.599099 0.169583 -179.472372
Spine -14.933109 -0.141747 -2.470633
Head 15.244120 -10.664165 4.305545
LeftShoulder -13.264683 -26.351515 15.076689
LeftArm -1.285757 8.865703 -15.307518
LeftForeArm 4.441263 -0.000000 2.077470
LeftHand -7.248430 -0.000000 6.584213
LeftHandThumb1 -26.253704 0.000000 33.147579
RightShoulder -12.973388 -9.128129 -4.238102
RightArm 8.395660 30.332131 19.621971
RightForeArm -32.530531 -0.000000 10.409275
RightHand -8.112499 0.000000 -4.479783
RightHandThumb1 -24.326973 -0.000000 -32.862282
LeftUpLeg 0.655497 9.407136 1.022008
LeftLeg -5.059374 -0.000000 0.000000
LeftFoot -20.178205 29.599600 -13.331168
LeftToeBase 25.823142 -0.000000 -0.000000
RightUpLeg 0.476234 -7.836158 0.045061
RightLeg -2.987205 -0.000000 0.000000
RightFoot -20.882988 -26.101772 14.475783
RightToeBase 24.761949 -0.000000 -0.000000
